<?xml version="1.0" encoding="UTF-8" standalone="no"?>
<!-- Created with Inkscape (http://www.inkscape.org/) -->

<svg
   viewBox="0 0 130.43956 33.86681"
   >
  
  <g
     id="layer1"
     transform="translate(321.85219,109.45019)">

    <g
       id="house">
      <path
         d="m -305.0999,-75.591561 -15.82625,-0.008 -0.46302,-0.26969 -0.46302,-0.269679 v -16.655653 -16.655607 l 11.44323,0.009 11.44323,0.009 5.35578,4.81972 5.35578,4.81971 0.002,11.830796 0.002,11.830791 -0.51177,0.273902 -0.51194,0.273889 z m -6.43354,-8.458626 h 2.11666 l 0.002,-3.902604 0.002,-3.902604 2.23663,-1.91823 2.23663,-1.918229 h 0.1668 0.1668 l 2.0929,1.889783 2.0929,1.889782 v 3.931052 3.93105 h 1.98436 1.98437 v -4.747263 -4.74726 l -4.11315,-3.728802 -4.11315,-3.728808 -0.7155,0.51799 -0.7155,0.517983 -1.44617,1.475789 -1.44616,1.475788 h -0.20748 -0.20748 v -1.984375 -1.984375 h -2.11666 -2.11667 v 8.466666 8.466667 z"
         id="path933-1" />
    </g>
    <g
       id="firstLine">
      <path
         d="m -267.74493,-91.743487 -1.32291,-0.01315 -0.57802,-0.232888 -0.57802,-0.23289 -0.28187,-0.526696 -0.28188,-0.526705 v -2.369332 -2.369331 l 0.49733,-0.614178 0.49732,-0.614175 1.87492,-0.105943 1.87493,-0.105943 0.80274,0.802746 0.80276,0.802747 v 2.150158 2.150158 l -0.38628,0.746982 -0.38629,0.74698 -0.60591,0.162309 -0.6059,0.162308 -1.32292,-0.01315 z m 0.21429,-1.356465 1.6378,-0.07836 0.0796,-1.846549 0.0796,-1.846549 -0.1508,-0.600847 -0.1508,-0.600847 h -1.57316 -1.57314 l -0.27391,0.511773 -0.27388,0.511772 v 1.489997 1.489996 l 0.28042,0.523987 0.28044,0.523986 z m 19.56247,1.299177 -1.78509,0.07182 -0.57802,-0.246735 -0.57801,-0.246737 -0.28188,-0.526696 -0.28189,-0.526697 v -2.369332 -2.369332 l 0.50579,-0.624625 0.5058,-0.624624 h 2.1306 2.13059 l 0.47248,0.472471 0.47247,0.47247 v 2.759226 2.759226 l -0.46387,0.463869 -0.46387,0.463868 z m -0.26716,-1.298677 1.65708,-0.07886 v -2.38125 -2.38125 h -1.7198 -1.71979 l -0.078,2.09328 -0.0781,2.09328 0.14076,0.36683 0.14077,0.36683 z m 8.27894,1.359576 -1.06561,-0.01677 -0.59917,-0.24071 -0.59916,-0.24071 -0.28244,-0.734707 -0.28244,-0.734707 0.0879,-2.206209 0.0879,-2.206209 0.6246,-0.50577 0.62459,-0.505765 h 1.82277 1.82278 v -1.322917 -1.32292 h 0.66146 0.66145 v 4.894796 4.894792 h -0.66145 -0.66146 v -0.279586 -0.279587 l -0.58803,0.411879 -0.58805,0.411877 -1.0656,-0.01677 z m 0.15022,-1.306144 h 1.25991 l 0.41578,-0.415774 0.41577,-0.415774 v -2.097768 -2.097768 h -1.53459 -1.53457 l -0.3175,0.3175 -0.3175,0.3175 v 2.019653 2.019653 l 0.17639,0.176389 0.17639,0.176389 z m 19.63021,1.322916 h -1.70446 l -0.79951,-0.799508 -0.79951,-0.799508 0.0923,-2.398577 0.0923,-2.398577 0.77402,-0.665608 0.77402,-0.665608 1.78623,0.100932 1.78623,0.100931 0.5486,0.496477 0.5486,0.496477 v 2.717914 2.717915 l -0.69714,0.54837 -0.69714,0.54837 z m -0.10086,-1.322916 h 1.50627 l 0.3175,-0.3175 0.3175,-0.3175 v -1.684269 -1.68427 l -0.27389,-0.511772 -0.27389,-0.511773 h -1.39299 -1.39298 l -0.3175,0.3175 -0.3175,0.3175 v 1.777527 1.777527 l 0.16061,0.418515 0.16059,0.418515 z m 14.39028,1.306144 -1.53338,-0.01677 -0.57802,-0.232889 -0.57802,-0.232889 -0.28188,-0.526696 -0.28188,-0.526692 v -0.54656 -0.546561 h 0.4867 0.4867 l 0.30739,0.674652 0.30739,0.674652 1.52102,-0.07934 1.52101,-0.07934 v -0.643603 -0.643602 l -1.82375,-0.547324 -1.82376,-0.547325 -0.53334,-0.714349 -0.53333,-0.71435 0.24936,-0.869491 0.24937,-0.869492 0.65252,-0.345141 0.65252,-0.34514 1.51144,0.09337 1.51143,0.09337 0.53909,0.487862 0.53908,0.487862 v 0.752743 0.752743 h -0.46643 -0.46642 l -0.26118,-0.595313 -0.26118,-0.595312 h -1.45521 -1.45521 l -0.0811,0.568621 -0.0811,0.568621 2.1344,0.710818 2.13439,0.710818 0.26176,0.489104 0.26176,0.489105 v 0.690879 0.690879 l -0.64943,0.649432 -0.64943,0.649431 -1.53338,-0.01677 z m -73.23547,-0.247811 h -0.66145 v -3.571875 -3.571875 h 0.66145 0.66145 v 0.270683 0.270683 l 0.66576,-0.436224 0.66578,-0.436224 1.33836,0.128601 1.33836,0.1286 0.44327,0.442535 0.44327,0.442536 0.0883,3.16628 0.0883,3.16628 h -0.67495 -0.67495 l -0.0748,-2.976563 -0.0748,-2.976562 -1.2848,-0.08179 -1.2848,-0.08179 -0.50114,0.453524 -0.50113,0.453524 v 2.604826 2.604826 z m 19.00493,0 h -0.633 l -0.1138,-0.330729 -0.1138,-0.330729 -0.90155,-3.175 -0.90156,-3.175 0.37766,-0.08852 0.37765,-0.08852 0.32399,0.124326 0.324,0.124326 0.63525,2.464045 0.63527,2.464044 0.12799,-0.383181 0.128,-0.383182 0.57631,-2.116667 0.57631,-2.116666 0.66937,-0.08055 0.66935,-0.08055 0.58673,2.197215 0.58674,2.197215 0.1896,0.201068 0.1896,0.201068 0.61461,-2.383881 0.61459,-2.38388 h 0.62631 0.62633 l -0.003,0.198438 -0.003,0.198437 -0.66224,2.38125 -0.66224,2.38125 -0.27507,1.008357 -0.27506,1.008358 -0.69181,-0.08232 -0.69181,-0.08232 -0.65946,-2.470138 -0.65945,-2.470139 -0.18042,0.353472 -0.18041,0.353472 -0.6072,2.182812 -0.6072,2.182813 h -0.633 z m 28.17526,-0.05248 -0.66477,0.07981 -0.96656,-3.39483 -0.96656,-3.39483 v -0.190709 -0.19071 h 0.62992 0.6299 l 0.62128,2.38125 0.62127,2.38125 h 0.14347 0.14346 l 0.62498,-2.395423 0.62496,-2.395424 0.67556,0.08032 0.67555,0.08032 0.6018,2.218025 0.60182,2.218025 0.0923,0.276775 0.0923,0.276774 0.62018,-2.362508 0.62019,-2.362508 0.19339,-0.220838 0.1934,-0.220839 0.51933,0.08855 0.51933,0.08855 -0.95351,3.439583 -0.9535,3.439583 -0.69363,0.0806 -0.69362,0.0806 -0.17975,-0.742062 -0.17975,-0.74206 -0.55059,-1.852084 -0.5506,-1.852083 -0.71335,2.513542 -0.71336,2.513541 z m 18.1719,0.05248 h -0.66146 v -3.571875 -3.571875 h 0.66146 0.66145 v 0.270683 0.270683 l 0.64616,-0.423381 0.64617,-0.423382 0.61061,0.08655 0.61061,0.08655 v 0.529167 0.529167 l -0.92605,0.08095 -0.92604,0.08095 -0.33073,0.432636 -0.33073,0.432637 v 2.595263 2.595264 z m 13.75833,0 h -0.66146 v -4.894792 -4.894791 h 0.66146 0.66146 v 2.645833 2.645833 h 0.92158 0.92159 l 0.67037,-1.322916 0.67037,-1.322917 h 0.67905 0.67905 l -0.0882,0.220629 -0.0882,0.220629 -0.78954,1.487574 -0.78954,1.487574 1.00661,1.863672 1.00661,1.863672 h -0.66971 -0.66973 l -0.87026,-1.584361 -0.87027,-1.58436 -0.8599,-0.0031 -0.85989,-0.0031 v 1.5875 1.5875 z m 7.9375,0 h -0.66146 v -3.571875 -3.571875 h 0.66146 0.66146 v 3.571875 3.571875 z m 0,-8.731253 h -0.66146 v -0.52916 -0.52917 h 0.66146 0.66146 v 0.52917 0.52916 z"
         id="path933-2" />
    </g>
    <g
       id="secondLine">
      <path
         d="m -276.4971,-79.552271 h -1.66935 l -0.74236,-0.63855 -0.74236,-0.638549 v -2.529101 -2.529099 l 0.60266,-0.602663 0.60266,-0.602663 h 2.0004 2.00041 l 0.50579,0.624623 0.50579,0.624626 v 1.558187 1.558189 h -2.51355 -2.51354 v 0.608542 0.608542 l 0.3175,0.3175 0.3175,0.3175 h 1.40797 1.40796 l 0.30138,-0.661459 0.30138,-0.661458 h 0.4867 0.4867 v 0.774546 0.774547 l -0.69714,0.54837 -0.69714,0.54837 z m 0.0209,-4.497916 h 1.98438 v -0.414269 -0.414269 l -0.2739,-0.511773 -0.27389,-0.511773 h -1.39298 -1.39298 l -0.3175,0.3175 -0.3175,0.3175 v 0.608542 0.608542 z m 8.42255,4.497916 h -1.64616 l -0.66168,-0.595312 -0.66168,-0.595313 -0.0807,-0.661458 -0.0807,-0.661458 0.52916,-0.07563 0.52917,-0.07563 0.26458,0.604798 0.26459,0.604795 h 1.5875 1.5875 l 0.0811,-0.568621 0.0811,-0.568622 -2.1344,-0.710816 -2.13439,-0.710819 -0.26176,-0.489103 -0.26176,-0.489107 v -0.649538 -0.649542 l 0.50579,-0.624626 0.50579,-0.624623 h 1.89884 1.89883 l 0.50579,0.624623 0.50579,0.624626 v 0.632145 0.632148 h -0.53571 -0.53572 l -0.25676,-0.67533 -0.25676,-0.675328 -1.39033,0.08001 -1.39034,0.08002 -0.0811,0.568621 -0.0811,0.568622 2.13439,0.710816 2.13439,0.710819 0.28598,0.534358 0.28598,0.534358 -0.16707,0.890576 -0.16707,0.89058 -0.57748,0.404479 -0.57748,0.404479 h -1.64616 z m 14.33162,-0.130654 -1.32292,0.119407 -0.59916,-0.251857 -0.59916,-0.251857 -0.27829,-0.731954 -0.27829,-0.731954 0.16041,-0.855043 0.16041,-0.855046 0.57747,-0.404479 0.57748,-0.404479 h 1.67768 1.67769 l -0.0829,-0.859896 -0.0829,-0.859896 -1.25779,-0.08069 -1.2578,-0.08068 -0.26433,0.695248 -0.26433,0.695251 -0.46225,-0.0881 -0.46225,-0.0881 -0.0787,-0.54782 -0.0787,-0.547822 0.51832,-0.640101 0.51832,-0.640102 h 1.76655 1.76655 l 0.50578,0.624623 0.50579,0.624626 v 3.021685 3.021684 l -0.85989,-0.0011 -0.8599,-0.0011 -1.32291,0.119407 z m -0.19351,-1.192262 h 1.2783 l 0.3175,-0.3175 0.3175,-0.3175 v -0.621168 -0.621165 l -1.65099,0.07877 -1.65099,0.07877 -0.0912,0.478475 -0.0912,0.478478 0.14637,0.381418 0.14636,0.381421 z m 14.9834,1.322916 h -1.71706 l -0.64944,-0.649433 -0.64943,-0.64943 v -2.496257 -2.496256 l 0.50579,-0.624626 0.50579,-0.624623 h 2.0004 2.0004 l 0.59604,0.596033 0.59603,0.596034 0.007,1.520632 0.007,1.520635 -2.57968,0.07573 -2.57969,0.07573 v 0.404689 0.404688 l 0.27389,0.511773 0.27389,0.511773 h 1.57315 1.57315 l 0.16958,-0.675635 0.16957,-0.675635 0.56307,0.08118 0.56307,0.08118 -0.0673,0.660602 -0.0673,0.660603 -0.67508,0.595313 -0.67507,0.595312 h -1.71707 z m 0.0268,-4.497916 h 1.98437 v -0.608542 -0.608542 l -0.3175,-0.3175 -0.3175,-0.3175 h -1.39298 -1.39298 l -0.27389,0.511773 -0.27389,0.511773 v 0.414269 0.414269 z m 8.46667,4.497916 h -1.74385 l -0.64943,-0.649433 -0.64943,-0.64943 v -0.673486 -0.673484 h 0.48669 0.4867 l 0.3074,0.674653 0.30739,0.67465 1.52101,-0.07934 1.52102,-0.07934 v -0.643602 -0.643604 l -1.82376,-0.547322 -1.82375,-0.547325 -0.53334,-0.714351 -0.53334,-0.714349 0.24937,-0.869492 0.24936,-0.86949 0.65252,-0.345141 0.65252,-0.345141 1.51144,0.09337 1.51144,0.09337 0.53908,0.487863 0.53908,0.487863 v 0.752742 0.752742 h -0.46642 -0.46643 l -0.26118,-0.595312 -0.26118,-0.595313 h -1.45521 -1.4552 l -0.0811,0.568621 -0.0811,0.568622 2.13439,0.710816 2.13439,0.710819 0.26176,0.489103 0.26176,0.489107 v 0.690877 0.69088 l -0.64943,0.64943 -0.64943,0.649433 z m -29.34958,-0.264583 h -1.17142 l -0.54837,-0.69714 -0.54837,-0.69714 v -2.345568 -2.345569 h -0.66146 -0.66146 v -0.529166 -0.529167 h 0.6447 0.64469 l 0.0829,-0.859896 0.0829,-0.859896 h 0.52917 0.52916 l 0.0829,0.859896 0.0829,0.859896 h 0.77699 0.77699 v 0.529167 0.529166 h -0.79375 -0.79375 v 2.196042 2.196042 l 0.3175,0.3175 0.3175,0.3175 h 0.74083 0.74083 v 0.529166 0.529167 z m 14.57149,0 h -1.19082 l -0.54837,-0.69714 -0.54837,-0.69714 v -2.345568 -2.345569 h -0.66146 -0.66146 v -0.529166 -0.529167 h 0.6447 0.64469 l 0.0829,-0.859896 0.0829,-0.859896 h 0.52917 0.52917 l 0.0829,0.859896 0.0829,0.859896 h 0.77698 0.77699 v 0.529167 0.529166 h -0.79375 -0.79375 v 2.216563 2.21656 l 0.33073,0.271629 0.33073,0.271627 0.65875,0.0915 0.65876,0.0915 0.0883,0.463021 0.0883,0.463021 z"
         id="path933" />
    </g>
  </g>
</svg>
